# xmcd
#
# Track frame offsets: 
#        150
#        15310
#        34702
#        50595
#        80290
#        100348
#        115073
#        129770
#        143167
#        158739
#        177996
#        189321
#        207245
#        222853
#        238670
#        266993
#        284074
#        309198
#
# Disc length: 4362 seconds
#
# Revision: 0
# Processed by: cddbd v1.5.2PL0 Copyright (c) Steve Scherf et al.
# Submitted via: ExactAudioCopy v0.99pb3
#
DISCID=f6110812
DTITLE=Swississippi Chris Harper - Four Aces And A Harp
DYEAR=2010
DGENRE=Blues
TTITLE0=Hand Me Down My Cane
TTITLE1=Down In The Bottom
TTITLE2=Sloppy Drunk
TTITLE3=I Smell Trouble
TTITLE4=Blues In My Life
TTITLE5=Next Time You See Me
TTITLE6=Mojo Hand
TTITLE7=You Make Me Fly
TTITLE8=What's Wrong
TTITLE9=Born In Arkansas
TTITLE10=Don't Get Around Much Anymore
TTITLE11=Forty Days And Forty Nights
TTITLE12=Eyesight To The Blind
TTITLE13=Evil Is Going On
TTITLE14=Long Distance Call
TTITLE15=Digging My Potatoes
TTITLE16=Worried Life Blues
TTITLE17=Fattening Frogs For Snakes (Took Me A Long Time)
EXTD=
EXTT0=
EXTT1=
EXTT2=
EXTT3=
EXTT4=
EXTT5=
EXTT6=
EXTT7=
EXTT8=
EXTT9=
EXTT10=
EXTT11=
EXTT12=
EXTT13=
EXTT14=
EXTT15=
EXTT16=
EXTT17=
PLAYORDER=
